Coordinates
version=1
nRows=16
nColumns=40
inDegrees=yes

Units are S.I. units (second, meters, Newtons, ...)
Angles are in degrees.

endheader
time	pelvis_tilt	pelvis_list	pelvis_rotation	pelvis_tx	pelvis_ty	pelvis_tz	hip_flexion_r	hip_adduction_r	hip_rotation_r	knee_angle_r	knee_angle_r_beta	ankle_angle_r	subtalar_angle_r	mtp_angle_r	hip_flexion_l	hip_adduction_l	hip_rotation_l	knee_angle_l	knee_angle_l_beta	ankle_angle_l	subtalar_angle_l	mtp_angle_l	lumbar_extension	lumbar_bending	lumbar_rotation	arm_flex_r	arm_add_r	arm_rot_r	elbow_flex_r	pro_sup_r	wrist_flex_r	wrist_dev_r	arm_flex_l	arm_add_l	arm_rot_l	elbow_flex_l	pro_sup_l	wrist_flex_l	wrist_dev_l
     21.05500000	     -5.12236751	     -4.01420294	      2.78476718	      1.04346110	      0.91995463	      0.45027335	      1.39365294	     -3.18232882	    -15.64304803	     30.93556420	     30.93556420	     14.19150720	      1.60851418	    -13.51825060	     27.72578663	     -4.75592684	     -0.75992218	     27.84792977	     27.84792977	      8.48239524	    -15.79179757	      8.37001568	     -9.13846039	      5.52144426	      3.70832497	     41.85970733	    -17.57047212	      5.63965878	    122.67497333	     43.71121979	      0.00000000	      0.00000000	    -16.09687347	     -8.16615291	      7.83611538	     29.77227331	     44.75246464	      0.00000000	      0.00000000
     21.06657143	     -5.09879417	     -3.95144271	      2.85746962	      1.04384799	      0.92121136	      0.44705975	      2.49535039	     -3.92157402	    -15.10757420	     33.58793265	     33.58793265	     10.44205935	     -0.71739189	    -20.21871604	     26.92913533	     -4.47873391	     -0.77016086	     27.58865622	     27.58865622	      8.99054072	    -15.65968530	      8.31875116	     -9.20435935	      5.58852684	      4.62829192	     38.65223686	    -18.87522246	      3.34637131	    124.41205945	     43.76804712	      0.00000000	      0.00000000	    -14.77202299	     -8.45832344	      7.41945199	     31.80588873	     44.87983376	      0.00000000	      0.00000000
     21.07814286	     -5.00769699	     -3.77027534	      2.89844308	      1.04415615	      0.92233935	      0.44391344	      3.93573366	     -4.93807767	    -14.63455170	     37.18741452	     37.18741452	      8.48556081	     -1.73229001	    -21.02425977	     26.02275182	     -4.15240427	     -1.05526238	     27.28592045	     27.28592045	      9.48406901	    -15.31146716	      8.07847251	     -9.23712847	      5.63093502	      4.09408234	     36.60780703	    -18.86281480	      3.53241710	    123.71194672	     43.78083069	      0.00000000	      0.00000000	    -13.65756817	     -8.46809263	      7.41543014	     32.41715298	     44.90631164	      0.00000000	      0.00000000
     21.08971429	     -4.86864887	     -3.62761776	      2.96446651	      1.04429622	      0.92325308	      0.44093740	      5.46670499	     -5.84398156	    -14.01449458	     40.87401041	     40.87401041	      6.22950227	     -3.00938394	    -21.55467132	     25.15259149	     -3.86282020	     -1.25971697	     27.10987734	     27.10987734	      9.98034635	    -15.07305073	      7.80306785	     -9.35669921	      5.70735156	      3.70552604	     34.34108937	    -18.97110500	      3.49910611	    122.87798575	     43.80273600	      0.00000000	      0.00000000	    -12.40040595	     -8.54381723	      7.31149789	     33.36947041	     44.94559892	      0.00000000	      0.00000000
     21.10128571	     -4.87765460	     -3.52722383	      2.94949042	      1.04419960	      0.92379132	      0.43833479	      7.36008777	     -6.57153658	    -13.10514024	     44.65636540	     44.65636540	      3.62301959	     -4.89028677	    -21.89024096	     24.44942715	     -3.65115879	     -1.47586462	     26.91976661	     26.91976661	     10.42543838	    -14.82583581	      7.48777772	     -9.29020020	      5.75712335	      3.52391950	     31.75513998	    -19.25366825	      3.01319526	    121.71568151	     43.85068984	      0.00000000	      0.00000000	    -11.19055030	     -8.73227703	      7.11995428	     34.77178023	     44.99736316	      0.00000000	      0.00000000
     21.11285714	     -4.70978270	     -3.63678500	      3.00466408	      1.04404351	      0.92434925	      0.43599996	      9.07186732	     -6.82462439	    -12.03996800	     48.17318721	     48.17318721	      0.61372974	     -7.53565428	    -22.23882359	     23.69280062	     -3.68294582	     -1.56394916	     26.92155300	     26.92155300	     10.86322875	    -14.55096478	      6.83088172	     -9.46368534	      6.00929883	      3.75003970	     28.72279171	    -19.25092045	      0.72329400	    120.46560283	     43.97865637	      0.00000000	      0.00000000	    -10.20773767	     -9.13032303	      6.96447347	     37.98813066	     45.06986174	      0.00000000	      0.00000000
     21.12442857	     -4.61267930	     -3.58388369	      3.01044715	      1.04368113	      0.92466832	      0.43375105	     11.01278692	     -7.33479366	    -11.16286011	     51.83264347	     51.83264347	     -1.90205535	     -9.31398606	    -21.13163026	     22.98050304	     -3.54474223	     -1.70359502	     26.87331462	     26.87331462	     11.30405412	    -14.35061613	      6.38177284	     -9.56107821	      6.11013031	      3.58078084	     26.05494627	    -19.23350978	     -0.07368042	    118.68367143	     44.06395641	      0.00000000	      0.00000000	     -8.87619887	     -9.42471274	      7.04969110	     39.84628604	     45.10831014	      0.00000000	      0.00000000
     21.13600000	     -4.49433879	     -3.56012472	      2.97870517	      1.04322447	      0.92489643	      0.43178656	     12.99602601	     -7.68919804	    -10.25483835	     55.34894620	     55.34894620	     -4.06289610	    -10.98173093	    -18.96673800	     22.27135032	     -3.47080560	     -1.86310495	     26.86675515	     26.86675515	     11.78681965	    -14.15369741	      5.91359438	     -9.68437262	      6.20729544	      3.45194522	     23.38645758	    -18.99040640	     -1.20937069	    116.38316645	     44.17617713	      0.00000000	      0.00000000	     -7.50492422	     -9.77165761	      7.21681500	     41.85548270	     45.14253543	      0.00000000	      0.00000000
     21.14757143	     -4.33257475	     -3.37706321	      2.91445022	      1.04271030	      0.92512924	      0.42993173	     14.90392870	     -8.23690465	     -9.50517448	     58.58245808	     58.58245808	     -6.11090067	    -12.43070435	    -17.49236683	     21.47019949	     -3.23241471	     -2.08388443	     26.79819601	     26.79819601	     12.30527912	    -14.03185899	      5.61883653	     -9.92100564	      6.17707329	      3.08865400	     20.83245362	    -18.63850709	     -1.36219952	    114.47965492	     44.23327794	      0.00000000	      0.00000000	     -5.89639030	    -10.05430257	      7.18738637	     43.04357437	     45.17951243	      0.00000000	      0.00000000
     21.15914286	     -4.22661072	     -3.39804030	      2.80151556	      1.04204274	      0.92527024	      0.42858068	     17.08496643	     -8.36472318	     -8.66749864	     61.92205350	     61.92205350	     -6.12310389	    -12.95580611	    -10.78378135	     20.78145697	     -3.28216533	     -2.33580535	     26.78121011	     26.78121011	     12.73374849	    -13.69480742	      4.94890226	    -10.02055395	      6.21446270	      3.03324964	     18.39493564	    -17.33075887	     -4.30773055	    110.52480257	     44.46985179	      0.00000000	      0.00000000	     -4.76266716	    -10.87280177	      8.42562654	     46.17239538	     45.15364497	      0.00000000	      0.00000000
     21.17071429	     -4.09833881	     -3.33988741	      2.62156124	      1.04133554	      0.92547395	      0.42735836	     19.16673249	     -8.54333750	     -7.92587613	     64.79134284	     64.79134284	     -6.13983911	    -13.71931670	     -5.57537789	     20.03328031	     -3.21614325	     -2.50421592	     26.71570684	     26.71570684	     13.14774075	    -13.69948391	      4.56369941	    -10.18877053	      6.24543528	      3.10569809	     15.93405863	    -17.17743892	     -4.96997242	    107.32191307	     44.61642263	      0.00000000	      0.00000000	     -2.92712179	    -11.52065302	      9.82564560	     47.62488798	     45.16088926	      0.00000000	      0.00000000
     21.18228571	     -4.00985383	     -3.24610059	      2.35615024	      1.04061695	      0.92575674	      0.42636525	     21.11584464	     -8.66776005	     -7.23852834	     66.96813726	     66.96813726	     -7.12398036	    -15.37505242	     -4.53400342	     19.24937857	     -3.14335215	     -2.79617841	     26.52595041	     26.52595041	     13.58783928	    -13.59395113	      4.38726038	    -10.34838846	      6.21919396	      3.17468305	     13.51516745	    -17.02266741	     -5.41944340	    104.11534098	     44.72469878	      0.00000000	      0.00000000	     -1.08495259	    -11.74483781	      9.73793112	     48.63829290	     45.21147607	      0.00000000	      0.00000000
     21.19385714	     -3.89052745	     -3.14440756	      2.04751422	      1.03996278	      0.92612306	      0.42567192	     22.97487606	     -8.79323557	     -6.71002935	     68.78254562	     68.78254562	     -7.48042618	    -16.69363294	     -3.40831943	     18.39033937	     -3.08476333	     -3.15168369	     26.27916586	     26.27916586	     14.06346688	    -13.49874545	      4.20389215	    -10.54062443	      6.12211891	      3.18638477	     11.29982861	    -16.53296322	     -6.04716071	    100.51362645	     44.85053789	      0.00000000	      0.00000000	      0.71575673	    -12.06408928	      9.77000931	     49.62496131	     45.24703668	      0.00000000	      0.00000000
     21.20542857	     -3.70826228	     -3.13966386	      1.75995739	      1.03925557	      0.92668483	      0.42515639	     24.82726847	     -8.78044315	     -6.32172074	     70.42694651	     70.42694651	     -6.11408684	    -16.99603405	      1.47596809	     17.47485692	     -3.12744255	     -3.41536297	     26.02140406	     26.02140406	     14.39188177	    -13.37153486	      3.85837129	    -10.72988059	      6.12719904	      2.93751147	     10.12408086	    -15.29784487	     -7.74177589	     94.68336313	     45.09028014	      0.00000000	      0.00000000	      2.35280509	    -13.09648595	     11.55530824	     51.04829418	     45.22176220	      0.00000000	      0.00000000
     21.21700000	     -3.59203860	     -3.07183626	      1.38069556	      1.03856776	      0.92729977	      0.42479692	     26.56633910	     -8.83347383	     -6.02104385	     71.38648136	     71.38648136	     -5.77689432	    -17.74266308	      2.36871690	     16.52066889	     -3.10670164	     -3.79792552	     25.59383611	     25.59383611	     14.76176480	    -13.22263262	      3.71665336	    -10.94472965	      6.08328582	      3.04999403	      8.41446346	    -14.72226931	     -8.57003578	     90.14771049	     45.25292609	      0.00000000	      0.00000000	      4.17414662	    -13.46449499	     11.75635334	     51.87592895	     45.26406152	      0.00000000	      0.00000000
     21.22857143	     -3.46652451	     -2.98580895	      0.94957806	      1.03801401	      0.92796815	      0.42465250	     28.20655132	     -8.86341900	     -5.79931192	     71.91227240	     71.91227240	     -5.10008973	    -18.24555697	      3.16705041	     15.46831416	     -3.07238718	     -4.27163298	     25.02493307	     25.02493307	     15.08318948	    -13.09602875	      3.64407399	    -11.13706784	      6.00037262	      3.36738893	      6.69208645	    -14.55565027	     -9.04194709	     85.80185810	     45.39753718	      0.00000000	      0.00000000	      5.98696477	    -13.83537716	     11.86528208	     52.91836166	     45.30417815	      0.00000000	      0.00000000
